<svg width="16" height="16" viewBox="0 0 16 16" fill="none" xmlns="http://www.w3.org/2000/svg">
<path d="M4.19231 10.64H3.76923L2.5 10.9615L3.34615 8.42308V3.34615C3.34615 3.12174 3.4353 2.90652 3.59398 2.74783C3.75267 2.58915 3.96789 2.5 4.19231 2.5H10.9615C11.1859 2.5 11.4012 2.58915 11.5599 2.74783C11.7185 2.90652 11.8077 3.12174 11.8077 3.34615V4.61539" stroke="#4D4D4D" stroke-linecap="round" stroke-linejoin="round"/>
<path d="M10.5384 12.6539L13.5 13.5001L13.0769 10.9616V7.57699C13.0769 7.35257 12.9877 7.13735 12.8291 6.97867C12.6704 6.81999 12.4552 6.73083 12.2308 6.73083H7.15383C6.92942 6.73083 6.7142 6.81999 6.55551 6.97867C6.39683 7.13735 6.30768 7.35257 6.30768 7.57699V11.8078C6.30768 12.0322 6.39683 12.2474 6.55551 12.4061C6.7142 12.5647 6.92942 12.6539 7.15383 12.6539H10.5384Z" stroke="#4D4D4D" stroke-linecap="round" stroke-linejoin="round"/>
<path d="M8.4231 8.84607H10.9616" stroke="#4D4D4D" stroke-linecap="round" stroke-linejoin="round"/>
<path d="M8.4231 10.5383H10.1154" stroke="#4D4D4D" stroke-linecap="round" stroke-linejoin="round"/>
</svg>
