<svg width="32" height="32" viewBox="0 0 32 32" fill="none" xmlns="http://www.w3.org/2000/svg">
<g clip-path="url(#clip0_3000_20588)">
<rect x="4.13721" y="26.0127" width="23.6976" height="2" fill="#4D4D4D"/>
</g>
<path fill-rule="evenodd" clip-rule="evenodd" d="M8.63102 18.9679C8.92022 18.6787 9.38911 18.6787 9.67831 18.9679L12.9006 22.1902C13.1898 22.4794 13.1898 22.9483 12.9006 23.2375L12.095 24.043C11.9562 24.1819 11.7678 24.2599 11.5714 24.2599H5.1268C4.82728 24.2599 4.55725 24.0795 4.44262 23.8028C4.328 23.5261 4.39136 23.2075 4.60315 22.9957L8.63102 18.9679ZM6.91465 22.7788H11.2646L11.3297 22.7138L9.15467 20.5388L6.91465 22.7788Z" fill="#4D4D4D"/>
<path fill-rule="evenodd" clip-rule="evenodd" d="M10.8856 11.5569C11.1624 11.4423 11.4809 11.5056 11.6927 11.7174L20.1512 20.1759C20.363 20.3877 20.4264 20.7062 20.3117 20.983C20.1971 21.2597 19.9271 21.4401 19.6276 21.4401H14.6981L12.901 23.2372C12.6118 23.5264 12.1429 23.5264 11.8537 23.2372L8.63145 20.0149C8.49257 19.876 8.41455 19.6876 8.41455 19.4912C8.41455 19.2948 8.49257 19.1064 8.63145 18.9676L10.4285 17.1705V12.2411C10.4285 11.9415 10.6089 11.6715 10.8856 11.5569ZM11.9096 14.0289V17.4773C11.9096 17.6737 11.8316 17.8621 11.6927 18.0009L10.2024 19.4912L12.3774 21.6662L13.8677 20.1759C14.0066 20.037 14.1949 19.959 14.3913 19.959H17.8397L11.9096 14.0289Z" fill="#4D4D4D"/>
<path fill-rule="evenodd" clip-rule="evenodd" d="M17.8172 4.52365C18.1064 4.23444 18.5753 4.23444 18.8645 4.52365L27.3388 12.998C27.628 13.2872 27.628 13.7561 27.3388 14.0453L20.1608 21.2232C19.8716 21.5124 19.4027 21.5124 19.1135 21.2232L10.6392 12.7489C10.35 12.4597 10.35 11.9908 10.6392 11.7016L17.8172 4.52365ZM18.3408 6.09459L12.2102 12.2252L19.6372 19.6523L25.7678 13.5216L18.3408 6.09459Z" fill="#4D4D4D"/>
<defs>
<clipPath id="clip0_3000_20588">
<rect x="4.13721" y="26.0254" width="23.6976" height="1.9748" rx="0.987399" fill="white"/>
</clipPath>
</defs>
</svg>
