<svg width="16" height="16" viewBox="0 0 16 16" fill="none" xmlns="http://www.w3.org/2000/svg">
<path fill-rule="evenodd" clip-rule="evenodd" d="M2.1178 11.0644C2.29538 10.8546 2.60948 10.8284 2.81935 11.006L4.99881 12.8501L7.17826 11.006C7.38814 10.8284 7.70223 10.8546 7.87982 11.0644C8.05741 11.2743 8.03123 11.5884 7.82136 11.766L5.32036 13.8822C5.13475 14.0393 4.86286 14.0393 4.67726 13.8822L2.17626 11.766C1.96639 11.5884 1.94021 11.2743 2.1178 11.0644Z" fill="#4D4D4D"/>
<path fill-rule="evenodd" clip-rule="evenodd" d="M4.99877 14C4.72385 14 4.50098 13.7771 4.50098 13.5022L4.50098 2.4978C4.50098 2.22287 4.72385 2 4.99877 2C5.2737 2 5.49657 2.22287 5.49657 2.4978L5.49657 13.5022C5.49657 13.7771 5.2737 14 4.99877 14Z" fill="#4D4D4D"/>
<path fill-rule="evenodd" clip-rule="evenodd" d="M8.11535 4.93605C7.93777 4.72617 7.96394 4.41207 8.17382 4.23449L10.6748 2.11826C10.8604 1.96121 11.1323 1.96121 11.3179 2.11826L13.8189 4.23449C14.0288 4.41207 14.055 4.72617 13.8774 4.93605C13.6998 5.14592 13.3857 5.17209 13.1758 4.99451L10.9964 3.15035L8.81691 4.99451C8.60704 5.17209 8.29294 5.14592 8.11535 4.93605Z" fill="#4D4D4D"/>
<path fill-rule="evenodd" clip-rule="evenodd" d="M10.9963 14C10.7214 14 10.4985 13.7771 10.4985 13.5022V2.4978C10.4985 2.22287 10.7214 2 10.9963 2C11.2713 2 11.4941 2.22287 11.4941 2.4978V13.5022C11.4941 13.7771 11.2713 14 10.9963 14Z" fill="#4D4D4D"/>
</svg>
