<svg width="24" height="24" viewBox="0 0 24 24" fill="none" xmlns="http://www.w3.org/2000/svg">
<path fill-rule="evenodd" clip-rule="evenodd" d="M4.14645 4.14645C4.34171 3.95118 4.65829 3.95118 4.85355 4.14645L10.4786 9.77145C10.6738 9.96671 10.6738 10.2833 10.4786 10.4786C10.2833 10.6738 9.96671 10.6738 9.77145 10.4786L4.14645 4.85355C3.95118 4.65829 3.95118 4.34171 4.14645 4.14645Z" fill="#4D4D4D"/>
<path fill-rule="evenodd" clip-rule="evenodd" d="M4 4.5C4 4.22386 4.22386 4 4.5 4H9.5C9.77614 4 10 4.22386 10 4.5C10 4.77614 9.77614 5 9.5 5H5V9.5C5 9.77614 4.77614 10 4.5 10C4.22386 10 4 9.77614 4 9.5V4.5Z" fill="#4D4D4D"/>
<path fill-rule="evenodd" clip-rule="evenodd" d="M13.5214 13.5214C13.7167 13.3262 14.0333 13.3262 14.2286 13.5214L19.8536 19.1464C20.0488 19.3417 20.0488 19.6583 19.8536 19.8536C19.6583 20.0488 19.3417 20.0488 19.1464 19.8536L13.5214 14.2286C13.3262 14.0333 13.3262 13.7167 13.5214 13.5214Z" fill="#4D4D4D"/>
<path fill-rule="evenodd" clip-rule="evenodd" d="M19.5 14C19.7761 14 20 14.2239 20 14.5V19.5C20 19.7761 19.7761 20 19.5 20H14.5C14.2239 20 14 19.7761 14 19.5C14 19.2239 14.2239 19 14.5 19H19V14.5C19 14.2239 19.2239 14 19.5 14Z" fill="#4D4D4D"/>
</svg>
