<svg width="12" height="12" viewBox="0 0 12 12" fill="none" xmlns="http://www.w3.org/2000/svg">
<path fill-rule="evenodd" clip-rule="evenodd" d="M10.8773 1.12204C11.04 1.28476 11.04 1.54858 10.8773 1.7113L7.43981 5.14881C7.27709 5.31153 7.01327 5.31153 6.85056 5.14881C6.68784 4.9861 6.68784 4.72228 6.85056 4.55956L10.2881 1.12204C10.4508 0.95932 10.7146 0.95932 10.8773 1.12204Z" fill="#4D4D4D"/>
<path fill-rule="evenodd" clip-rule="evenodd" d="M7.11035 1.41667C7.11035 1.18655 7.2969 1 7.52702 1H10.5826C10.8127 1 10.9993 1.18655 10.9993 1.41667V4.47224C10.9993 4.70236 10.8127 4.88891 10.5826 4.88891C10.3525 4.88891 10.1659 4.70236 10.1659 4.47224V1.83334H7.52702C7.2969 1.83334 7.11035 1.64679 7.11035 1.41667Z" fill="#4D4D4D"/>
<path fill-rule="evenodd" clip-rule="evenodd" d="M5.14881 6.85104C5.31153 7.01376 5.31153 7.27758 5.14881 7.4403L1.7113 10.8778C1.54858 11.0405 1.28476 11.0405 1.12204 10.8778C0.95932 10.7151 0.95932 10.4513 1.12204 10.2886L4.55956 6.85104C4.72228 6.68832 4.9861 6.68832 5.14881 6.85104Z" fill="#4D4D4D"/>
<path fill-rule="evenodd" clip-rule="evenodd" d="M1.41667 7.11133C1.64679 7.11133 1.83334 7.29788 1.83334 7.528V10.1669H4.47224C4.70236 10.1669 4.88891 10.3534 4.88891 10.5836C4.88891 10.8137 4.70236 11.0002 4.47224 11.0002H1.41667C1.18655 11.0002 1 10.8137 1 10.5836V7.528C1 7.29788 1.18655 7.11133 1.41667 7.11133Z" fill="#4D4D4D"/>
</svg>
