<svg width="12" height="12" viewBox="0 0 12 12" fill="none" xmlns="http://www.w3.org/2000/svg">
<path fill-rule="evenodd" clip-rule="evenodd" d="M7.65065 1.8334C7.47577 1.8334 7.334 1.97517 7.334 2.15006V4.34999C7.334 4.52487 7.47577 4.66664 7.65065 4.66664H9.85059C10.0255 4.66664 10.1672 4.52487 10.1672 4.34999V2.15006C10.1672 1.97517 10.0255 1.8334 9.85059 1.8334H7.65065ZM6.50069 2.15006C6.50069 1.51495 7.01555 1.00009 7.65065 1.00009H9.85059C10.4857 1.00009 11.0006 1.51495 11.0006 2.15006V4.34999C11.0006 4.98509 10.4857 5.49995 9.85059 5.49995H7.65065C7.01555 5.49995 6.50069 4.98509 6.50069 4.34999V2.15006Z" fill="#4D4D4D"/>
<path fill-rule="evenodd" clip-rule="evenodd" d="M2.15015 1.83348C1.97527 1.83348 1.83349 1.97525 1.83349 2.15013V4.35006C1.83349 4.52495 1.97527 4.66672 2.15015 4.66672H4.35008C4.52496 4.66672 4.66674 4.52495 4.66674 4.35006V2.15013C4.66674 1.97525 4.52496 1.83348 4.35008 1.83348H2.15015ZM1.00019 2.15013C1.00019 1.51503 1.51505 1.00017 2.15015 1.00017H4.35008C4.98519 1.00017 5.50005 1.51503 5.50005 2.15013V4.35006C5.50005 4.98517 4.98519 5.50003 4.35008 5.50003H2.15015C1.51505 5.50003 1.00019 4.98517 1.00019 4.35006V2.15013Z" fill="#4D4D4D"/>
<path fill-rule="evenodd" clip-rule="evenodd" d="M7.65065 7.33331C7.47577 7.33331 7.334 7.47508 7.334 7.64996V9.8499C7.334 10.0248 7.47577 10.1666 7.65065 10.1666H9.85059C10.0255 10.1666 10.1672 10.0248 10.1672 9.8499V7.64996C10.1672 7.47508 10.0255 7.33331 9.85059 7.33331H7.65065ZM6.50069 7.64996C6.50069 7.01486 7.01555 6.5 7.65065 6.5H9.85059C10.4857 6.5 11.0006 7.01486 11.0006 7.64996V9.8499C11.0006 10.485 10.4857 10.9999 9.85059 10.9999H7.65065C7.01555 10.9999 6.50069 10.485 6.50069 9.8499V7.64996Z" fill="#4D4D4D"/>
<path fill-rule="evenodd" clip-rule="evenodd" d="M2.15034 7.33331C1.97546 7.33331 1.83368 7.47508 1.83368 7.64996V9.8499C1.83368 10.0248 1.97546 10.1666 2.15034 10.1666H4.35027C4.52515 10.1666 4.66693 10.0248 4.66693 9.8499V7.64996C4.66693 7.47508 4.52515 7.33331 4.35027 7.33331H2.15034ZM1.00037 7.64996C1.00037 7.01486 1.51523 6.5 2.15034 6.5H4.35027C4.98537 6.5 5.50023 7.01486 5.50023 7.64996V9.8499C5.50023 10.485 4.98537 10.9999 4.35027 10.9999H2.15034C1.51523 10.9999 1.00037 10.485 1.00037 9.8499V7.64996Z" fill="#4D4D4D"/>
</svg>
